<svg version="1.1" id="Layer_1" xmlns="http://www.w3.org/2000/svg" x="0" y="0" viewBox="0 0 341.6 105.3" xml:space="preserve"><style>.st0{fill:#2676b7}</style><path class="st0" d="M46 61.6H29.9v-1.8c.5 0 1.1-.1 2-.2.9-.1 1.5-.2 1.8-.3.6-.2 1-.5 1.2-.9.3-.4.4-.9.4-1.6V31.1c0-.6-.1-1.1-.3-1.5s-.6-.7-1.3-1c-.5-.2-1.1-.4-1.9-.6-.8-.2-1.4-.3-1.9-.3v-1.8H46v1.8c-.5 0-1.1.1-1.9.2-.7.1-1.3.2-1.9.4-.6.2-1.1.5-1.3 1s-.3 1-.3 1.5v25.8c0 .6.1 1 .4 1.5.2.4.7.8 1.2 1 .4.1.9.3 1.7.4.8.2 1.5.2 2 .3l.1 1.8zM84.8 34c-.4 0-1 .1-1.8.3s-1.4.4-1.7.6c-.5.3-.8 1-1 2s-.3 2.2-.3 3.7v21.3h-1.8L60.7 38.1v15c0 1.7.1 3 .3 3.9s.5 1.5 1 1.9c.3.3 1 .6 1.9.8 1 .3 1.6.4 1.9.4v1.5H54v-1.5c.4 0 1-.2 1.9-.4s1.4-.5 1.6-.6c.5-.4.8-1 1-1.8s.3-2.1.3-4V39c0-.6-.1-1.3-.3-1.9-.2-.6-.5-1.1-.9-1.5-.5-.5-1.2-.8-2-1.2-.8-.3-1.5-.5-2-.5v-1.5h8.3l16.3 22.1V40.9c0-1.7-.1-3-.3-3.9-.2-.9-.5-1.5-.9-1.8s-1-.5-1.9-.8c-.9-.2-1.5-.4-2-.4v-1.5h11.8l-.1 1.5zm60.7 2c1.3 1.3 2.3 3 3 4.8.7 1.9 1.1 4 1.1 6.3s-.4 4.4-1.1 6.3c-.7 1.9-1.8 3.5-3.1 4.8s-2.7 2.3-4.4 3-3.5 1.1-5.4 1.1c-2 0-3.9-.4-5.6-1.1-1.7-.8-3.2-1.8-4.4-3.2-1.2-1.3-2.2-2.9-2.9-4.8-.7-1.9-1.1-3.9-1.1-6.1 0-2.4.4-4.5 1.1-6.3s1.7-3.4 3-4.8c1.3-1.3 2.8-2.4 4.5-3.1 1.7-.7 3.5-1.1 5.3-1.1 1.9 0 3.7.4 5.4 1.1 1.9.8 3.4 1.8 4.6 3.1zm-3 20.6c.8-1.2 1.3-2.6 1.7-4.2.3-1.6.5-3.3.5-5.3s-.2-3.8-.6-5.5c-.4-1.7-1-3.1-1.7-4.3-.8-1.2-1.7-2.1-2.8-2.7-1.1-.6-2.4-1-3.9-1-1.6 0-3 .4-4.2 1.1-1.1.8-2.1 1.8-2.8 3s-1.2 2.6-1.5 4.2c-.3 1.6-.5 3.3-.5 5.1 0 2 .2 3.7.5 5.3.4 1.6.9 3 1.7 4.2.7 1.2 1.7 2.1 2.8 2.8s2.5 1 4 1 2.8-.3 3.9-1c1.2-.5 2.2-1.5 2.9-2.7zm99.2-3.5c-.2.6-.6 1.6-1.3 2.9-.7 1.3-1.3 2.3-2 3-.2.2-.6.4-1.2.6-.6.1-1.1.2-1.6.3s-1.1.1-1.9.1h-1.8c-1.1 0-2 0-2.6-.1s-1.1-.2-1.5-.5-.6-.6-.7-1.1c-.1-.5-.2-1.2-.2-2.1v-8.7h3.3c.9 0 1.6.1 2.1.2.5.2 1 .5 1.4 1 .3.3.5.9.7 1.6.2.7.4 1.4.4 2.1h1.5V41h-1.5c-.1.6-.2 1.2-.4 1.9s-.5 1.2-.8 1.6c-.4.5-.8.8-1.3 1s-1.3.3-2.3.3h-3V34.2h8.1c.7 0 3.1.3 4.7 2.6.4.6 1.5 2.6 1.5 2.6h1.6l-.5-6.9h-23.9V34c.4 0 .9.1 1.5.2s1.1.3 1.5.5c.5.2.8.5.9.9.2.3.2.7.2 1.2v20.9c0 .5-.1.9-.3 1.2s-.5.6-.9.8c-.2.1-.6.2-1.3.3s-1.2.1-1.6.2v1.5h24.1l.6-8.6h-1.5zm21.6 9.2c-1.7 0-3.4-.3-5-1s-3-1.7-4.2-2.9c-1.2-1.3-2.2-2.8-2.9-4.7s-1.1-3.9-1.1-6.3c0-2.3.4-4.4 1.1-6.3.7-1.9 1.7-3.5 2.9-4.9s2.7-2.4 4.4-3.1c1.7-.7 3.5-1.1 5.4-1.1 1.4 0 2.7.2 3.9.5 1.2.4 2.3.9 3.3 1.5l.8-1.4h1.6l.2 10.4H272c-.2-1-.5-2.1-1-3.3-.4-1.2-.9-2.2-1.5-3-.7-.9-1.4-1.7-2.3-2.2s-1.9-.8-3.1-.8c-1.3 0-2.6.3-3.7.9-1.1.6-2.1 1.5-3 2.6-.8 1.1-1.4 2.5-1.9 4.2-.4 1.7-.7 3.6-.7 5.7 0 1.9.2 3.6.7 5.1s1.1 2.9 2 4.1c.9 1.2 1.9 2.1 3.1 2.7 1.2.7 2.5 1 4 1 1.1 0 2.1-.2 3-.5.9-.4 1.7-.8 2.4-1.4.7-.6 1.3-1.3 1.8-2 .5-.8.9-1.6 1.3-2.5l1.5.7c-1.2 2.9-2.7 4.9-4.7 6.2-1.6 1.2-3.9 1.8-6.6 1.8zm48.7-.7h-12.1v-1.5c.3 0 .8-.1 1.4-.1.6-.1 1-.1 1.3-.2.4-.2.7-.4.9-.7.2-.3.3-.8.3-1.3V47.4h-13.7v10.1c0 .5.1.9.2 1.2.2.3.5.6.9.9.2.1.6.2 1.2.4.6.1 1.1.2 1.4.2v1.5h-12.1v-1.5c.3 0 .8-.1 1.4-.1.6-.1 1-.1 1.3-.2.4-.2.7-.4.9-.7.2-.3.3-.8.3-1.3v-21c0-.4-.1-.8-.3-1.2-.2-.4-.5-.6-.9-.9-.4-.2-.8-.3-1.3-.5-.5-.1-1-.2-1.4-.2v-1.5H294V34c-.4 0-.8.1-1.4.2-.6.1-1 .2-1.2.3-.5.2-.8.4-.9.8-.2.4-.2.8-.2 1.2v9H304v-8.8c0-.4-.1-.8-.3-1.2-.2-.4-.5-.6-.9-.9-.4-.2-.8-.3-1.3-.5-.5-.1-1-.2-1.4-.2v-1.5H312V34c-.4 0-.8.1-1.4.2-.6.1-1 .2-1.2.3-.5.2-.8.4-.9.8-.2.4-.2.8-.2 1.2v20.9c0 .5.1.9.2 1.2.2.3.5.6.9.9.2.1.6.2 1.2.4.6.1 1.1.2 1.4.2v1.5zm-196.3-29H91.8V34c.4 0 .9.1 1.5.2s1.1.3 1.5.5c.5.2.8.5.9.9.2.3.2.7.2 1.2v21c0 .5-.1.9-.3 1.3-.2.3-.5.6-.9.8-.2.1-.6.2-1.3.2-.7.1-1.2.1-1.6.1v1.5h12.6v-1.5c-.4 0-.9-.1-1.6-.2-.7-.1-1.1-.3-1.3-.3-.4-.2-.8-.5-.9-.9-.2-.4-.3-.8-.3-1.2v-10h3.3c.9 0 1.6.1 2.2.3s1.1.5 1.5 1c.3.3.5.9.8 1.7.2.8.4 1.4.4 2h1.6V41.1h-1.6c-.1.7-.2 1.4-.4 2-.2.6-.5 1.1-.7 1.4-.4.4-.9.8-1.4 1-.6.2-1.3.3-2.4.3h-3.3V34.2h8.1c.7 0 3.1.3 4.6 2.6.4.6 1.5 2.5 1.5 2.5h1.6l-.4-6.7zm96.1-6.7h-30l-.5 8.1h1.9s1.3-2.3 1.8-3c1.9-2.7 4.7-3 5.5-3.1h3.8v28.5c0 .6-.1 1.1-.3 1.5-.2.5-.6.8-1.2 1.1-.3.1-.9.3-1.9.5s-1.7.3-2.2.3v1.8h16.9v-1.8c-.5 0-1.3-.1-2.2-.3-1-.2-1.6-.4-1.9-.5-.6-.3-1-.6-1.2-1.1s-.4-1-.4-1.5V27.9h3.8c.8 0 3.7.4 5.5 3.1.5.7 1.8 3 1.8 3h1.9l-1.1-8.1zM29.9 72.6h4.3c.4 0 .8 0 1.1.1s.6.2.9.4c.3.2.5.5.6.8.2.3.2.7.2 1.1 0 .6-.2 1.1-.5 1.6-.3.4-.8.7-1.4.8.3 0 .6.1.8.2s.4.3.5.5l.3.6c.1.2.1.5.1.8v.6c0 .2 0 .5.1.7 0 .2.1.5.1.7.1.2.1.4.2.5h-1c-.1-.1-.1-.2-.1-.3 0-.1-.1-.3-.1-.4v-.7c0-.3 0-.7-.1-1 0-.3-.1-.6-.3-.9-.1-.3-.3-.5-.6-.6-.2-.2-.6-.2-1-.2h-3.4V82h-.9v-9.4h.2zm.9 4.4h3.3c.3 0 .5 0 .8-.1.2-.1.5-.2.6-.4.2-.2.3-.3.4-.6.1-.2.2-.5.2-.8 0-.6-.2-1-.5-1.4-.3-.3-.8-.5-1.5-.5h-3.3V77z"/><path class="st0" d="M37.9 82.2h-1.7l-.1-.1c-.1-.1-.1-.2-.1-.4 0-.1-.1-.3-.1-.4v-.7c0-.3 0-.7-.1-1 0-.3-.1-.6-.2-.8-.1-.2-.3-.4-.5-.5s-.5-.2-.8-.2h-3.2v4.2h-1.4v-9.9h4.6c.4 0 .8.1 1.2.2s.7.3 1 .5.5.5.7.9c.2.3.3.8.3 1.2 0 .6-.2 1.2-.5 1.7-.2.3-.5.5-.8.7 0 0 .1 0 .1.1.2.1.4.3.6.5.1.2.3.5.3.7.1.3.1.5.1.8v.6c0 .2 0 .4.1.7 0 .2.1.4.1.6s.1.3.2.4l.2.2zm-1.4-.5h.4c0-.1 0-.1-.1-.2-.1-.2-.1-.5-.1-.7s0-.5-.1-.7v-.6c0-.3-.1-.5-.1-.7s-.1-.4-.2-.6c-.1-.2-.2-.3-.4-.4s-.4-.2-.7-.2h-.1c.1 0 .2.1.2.1.3.2.5.4.6.7.1.3.2.6.3 1 0 .3.1.7.1 1v.7c0 .1 0 .2.1.4.1.1.1.2.1.2zm-6.3 0h.4v-4.2h3.6c.3 0 .6 0 .8.1v-.4l.2-.1c.5-.1.9-.4 1.2-.7.3-.4.4-.9.4-1.4 0-.4-.1-.7-.2-1-.1-.3-.3-.5-.5-.7s-.5-.3-.8-.4-.7-.1-1-.1h-4.1v8.9zm3.9-4.4h-3.6v-4.2h3.6c.7 0 1.3.2 1.7.6s.6.9.6 1.5c0 .3-.1.6-.2.9-.1.3-.3.5-.5.7s-.5.3-.7.4c-.3 0-.6.1-.9.1zm-3-.5h3.1c.2 0 .5 0 .7-.1l.6-.3c.2-.1.3-.3.4-.5.1-.2.1-.4.1-.7 0-.5-.1-.9-.4-1.2-.3-.3-.7-.4-1.3-.4h-3.1l-.1 3.2zm20.3-4.2h6.5v.8h-5.6v3.4h5.2v.8h-5.2v3.7H58v.7h-6.6v-9.4z"/><path class="st0" d="M58.2 82.2h-7.1v-9.9h7v1.3h-5.6v2.9h5.2v1.3h-5.2V81h5.7v1.2zm-6.5-.5h6.1v-.3h-5.7v-4.2h5.2V77h-5.2v-3.9h5.6v-.3h-6v8.9zm20.7-2.8c0 .5.1.9.2 1.2.2.3.4.6.7.8.3.2.6.3 1 .4s.8.1 1.2.1c.2 0 .5 0 .8-.1s.6-.2.8-.3c.3-.2.5-.4.6-.6.2-.2.3-.5.3-.9 0-.3-.1-.5-.2-.7s-.3-.4-.5-.5l-.6-.3c-.2-.1-.5-.2-.7-.2l-2-.5c-.3-.1-.5-.2-.8-.3-.3-.1-.5-.2-.7-.4-.2-.2-.3-.4-.5-.6-.1-.3-.2-.6-.2-.9 0-.2 0-.5.1-.8s.3-.6.5-.9.6-.5 1-.7 1-.3 1.6-.3c.5 0 .9.1 1.3.2s.8.3 1.1.6c.3.2.6.6.8.9.2.4.3.8.3 1.3h-.9c0-.4-.1-.7-.2-.9-.1-.3-.3-.5-.6-.7-.2-.2-.5-.3-.8-.4s-.6-.1-1-.1c-.3 0-.6 0-.9.1s-.5.2-.7.3c-.2.1-.4.3-.5.6-.1.2-.2.5-.2.9 0 .2 0 .4.1.6s.2.3.3.4c.1.1.3.2.5.3.2.1.4.1.5.2l2.3.6.9.3c.3.1.6.3.8.5.2.2.4.4.5.7.1.3.2.6.2 1v.4c0 .2-.1.4-.2.6s-.2.4-.4.6l-.6.6c-.3.2-.6.3-1 .4s-.9.2-1.4.2c-.6 0-1.1-.1-1.5-.2-.5-.1-.9-.3-1.2-.6-.3-.3-.6-.6-.8-1-.2-.4-.3-.9-.2-1.5h.9v-.4z"/><path class="st0" d="M75.3 82.4c-.6 0-1.1-.1-1.6-.2s-.9-.4-1.3-.6c-.4-.3-.6-.7-.8-1.1-.2-.4-.3-1-.2-1.6v-.2h1.4v.3c0 .4.1.8.2 1.1.1.3.3.5.6.7.2.2.5.3.9.4.5.1 1.1.2 1.9 0 .3-.1.5-.2.7-.3.2-.1.4-.3.5-.5s.2-.4.2-.7c0-.2 0-.4-.1-.6s-.2-.3-.4-.4l-.6-.3c-.2-.1-.4-.1-.6-.2l-2.1-.5c-.3-.1-.6-.2-.8-.3-.3-.1-.5-.3-.7-.5s-.4-.4-.5-.7c-.1-.3-.2-.6-.2-1 0-.3 0-.5.1-.9.1-.3.3-.7.5-1 .3-.3.6-.6 1.1-.8.5-.2 1-.3 1.7-.3.5 0 1 .1 1.4.2s.8.3 1.2.6c.3.3.6.6.8 1 .2.4.3.9.3 1.4v.2h-1.4v-.2c0-.3-.1-.6-.2-.8-.1-.2-.3-.4-.5-.6s-.5-.3-.7-.4c-.5-.2-1.2-.2-1.7 0-.3.1-.5.2-.7.3-.2.1-.3.3-.4.5-.3.1-.3.3-.3.6 0 .2 0 .3.1.5.1.1.1.2.2.3.1.1.2.2.4.2.2.1.3.1.5.2l2.3.6c.3.1.7.2 1 .3.3.1.6.3.8.5.2.2.4.5.6.8.1.3.2.7.2 1.1v.5c0 .2-.1.4-.2.6s-.2.4-.4.7c-.2.2-.4.4-.7.6-.3.2-.6.3-1.1.4-.3.1-.8.1-1.4.1zm-3.5-3.3c0 .4.1.8.2 1.1.2.4.4.7.7.9.3.2.7.4 1.1.5.9.2 2.1.2 2.8 0 .4-.1.7-.2.9-.4.2-.1.4-.3.6-.5.1-.2.2-.4.3-.5.1-.2.1-.3.1-.5v-.4c0-.3-.1-.6-.2-.9-.1-.2-.3-.4-.5-.6s-.4-.3-.7-.4l-.9-.3-2.3-.6c-.2 0-.4-.1-.6-.2s-.4-.2-.5-.3c-.2-.1-.3-.3-.4-.5s-.1-.4-.1-.7c0-.4.1-.7.2-1 .2-.3.4-.5.6-.7s.5-.3.8-.4c.6-.1 1.4-.1 2 0 .3.1.6.3.9.4.3.2.5.5.6.8.1.2.2.5.2.8h.4c0-.3-.1-.6-.2-.9-.2-.3-.4-.6-.7-.8-.3-.2-.6-.4-1-.5s-.8-.2-1.3-.2c-.6 0-1.1.1-1.5.3-.4.2-.7.4-.9.6-.2.2-.4.5-.4.8-.1.3-.1.5-.1.7 0 .3.1.6.2.8.1.2.2.4.4.6.2.2.4.3.6.4s.5.2.8.3l2.1.5c.2.1.5.1.7.2s.5.2.7.4c.2.1.4.3.5.6.1.2.2.5.2.8 0 .4-.1.7-.3 1-.2.3-.4.5-.7.7-.3.2-.6.3-.9.4-.8.2-1.5.1-2.1 0-.4-.1-.8-.2-1.1-.5-.3-.2-.6-.5-.7-.9-.1-.3-.2-.7-.2-1.1h-.3v.2zm21.3-6.5h6.5v.8H94v3.4h5.2v.8H94v3.7h5.7v.7h-6.6v-9.4z"/><path class="st0" d="M99.9 82.2h-7.1v-9.9h7v1.3h-5.6v2.9h5.2v1.3h-5.2V81h5.7v1.2zm-6.6-.5h6.1v-.3h-5.7v-4.2h5.2V77h-5.2v-3.9h5.6v-.3h-6v8.9zm23.1-9.1h1l3.7 9.4h-1l-1.1-2.9h-4.3l-1.1 2.9h-1l3.8-9.4zm-1.4 5.7h3.7l-1.8-4.8-1.9 4.8z"/><path class="st0" d="M121.4 82.2h-1.5l-1.1-2.9h-3.9l-1.1 2.9h-1.5l4-9.9h1.3l3.8 9.9zm-1.1-.5h.4l-3.5-8.9h-.3l2.2 5.7h-4.4l2.2-5.7h-.3l-3.6 8.9h.4l1.1-2.9h4.6l1.2 2.9zm-5-3.7h3l-1.5-3.9-1.5 3.9zm19.4-5.4h4.3c.4 0 .8 0 1.1.1s.6.2.9.4c.3.2.5.5.6.8.2.3.2.7.2 1.1 0 .6-.2 1.1-.5 1.6-.3.4-.8.7-1.4.8.3 0 .6.1.8.2s.4.3.5.5l.3.6c.1.2.1.5.1.8v.6c0 .2 0 .5.1.7 0 .2.1.5.1.7.1.2.1.4.2.5h-1c-.1-.1-.1-.2-.1-.3 0-.1-.1-.3-.1-.4v-.7c0-.3 0-.7-.1-1 0-.3-.1-.6-.3-.9-.1-.3-.3-.5-.6-.6-.2-.2-.6-.2-1-.2h-3.4V82h-.9v-9.4h.2zm.9 4.4h3.3c.3 0 .5 0 .8-.1.2-.1.5-.2.6-.4.2-.2.3-.3.4-.6.1-.2.2-.5.2-.8 0-.6-.2-1-.5-1.4-.3-.3-.8-.5-1.5-.5h-3.3V77z"/><path class="st0" d="M142.6 82.2H141l-.1-.1c-.1-.1-.1-.2-.2-.4 0-.1-.1-.3-.1-.4v-.7c0-.3 0-.7-.1-1 0-.3-.1-.6-.2-.8-.1-.2-.3-.4-.5-.5s-.5-.2-.8-.2h-3.2v4.2h-1.4v-9.9h4.6c.4 0 .8.1 1.2.2s.7.3 1 .5.5.5.7.9c.2.3.3.8.3 1.2 0 .6-.2 1.2-.5 1.7-.2.3-.5.5-.8.7 0 0 .1 0 .1.1.2.1.4.3.6.5.1.2.3.5.3.7.1.3.1.5.1.8v.6c0 .2 0 .4.1.7 0 .2.1.4.1.6s.1.3.2.4l.2.2zm-1.3-.5h.4c0-.1 0-.1-.1-.2-.1-.2-.1-.5-.1-.7s0-.5-.1-.7v-.6c0-.3-.1-.5-.1-.7s-.1-.4-.2-.6c-.1-.2-.2-.3-.4-.4s-.4-.2-.7-.2h-.1c.1 0 .2.1.2.1.3.2.5.4.6.7.1.3.2.6.3 1 0 .3.1.7.1 1v.7c0 .1 0 .2.1.4 0 .1 0 .2.1.2zm-6.4 0h.4v-4.2h3.6c.3 0 .6 0 .8.1v-.4l.2-.1c.5-.1.9-.4 1.2-.7.3-.4.4-.9.4-1.4 0-.4-.1-.7-.2-1s-.3-.5-.5-.7-.5-.3-.8-.4-.7-.1-1-.1h-4.1v8.9zm4-4.4h-3.6v-4.2h3.6c.7 0 1.3.2 1.7.6s.6.9.6 1.5c0 .3-.1.6-.2.9-.1.3-.3.5-.5.7s-.5.3-.7.4c-.3 0-.6.1-.9.1zm-3.1-.5h3.1c.2 0 .5 0 .7-.1l.6-.3c.2-.1.3-.3.4-.5.1-.2.1-.4.1-.7 0-.5-.1-.9-.4-1.2-.3-.3-.7-.4-1.3-.4h-3.1v3.2h-.1zm27.3-1.4c-.1-.4-.2-.7-.4-1s-.4-.5-.7-.7-.5-.3-.9-.4c-.3-.1-.6-.2-1-.2-.6 0-1.2.1-1.6.4-.4.2-.8.6-1.1.9-.3.4-.5.8-.6 1.3s-.2 1-.2 1.5.1 1 .2 1.5.3.9.6 1.3.7.7 1.1.9c.4.2 1 .4 1.6.4.4 0 .8-.1 1.2-.2.4-.2.7-.4.9-.6.3-.3.5-.6.6-1 .2-.4.3-.8.3-1.2h.9c-.1.6-.2 1.1-.4 1.6s-.5.9-.8 1.2c-.3.3-.7.6-1.2.8-.5.2-1 .3-1.5.3-.7 0-1.4-.1-1.9-.4-.6-.3-1-.6-1.4-1.1s-.6-1-.8-1.6-.3-1.2-.3-1.8c0-.6.1-1.3.3-1.8.2-.6.5-1.1.8-1.6.4-.5.8-.8 1.4-1.1.6-.3 1.2-.4 1.9-.4.4 0 .9.1 1.3.2s.8.3 1.2.6c.3.3.6.6.9 1 .2.4.4.8.4 1.3h-.8v-.1z"/><path class="st0" d="M160.2 82.4c-.8 0-1.5-.1-2-.4-.6-.3-1.1-.7-1.5-1.1-.4-.5-.7-1-.9-1.6s-.3-1.3-.3-1.9c0-.7.1-1.3.3-1.9s.5-1.2.9-1.7.9-.9 1.5-1.1c.6-.3 1.3-.4 2-.4.5 0 .9.1 1.4.2s.9.3 1.2.6c.4.3.7.6.9 1s.4.9.5 1.4v.3h-1.4v-.2c-.1-.3-.2-.6-.4-.9s-.4-.5-.6-.6c-.2-.2-.5-.3-.8-.4s-.6-.1-.9-.1c-.6 0-1.1.1-1.5.3-.4.2-.8.5-1 .9-.3.4-.5.8-.6 1.2-.1.5-.2 1-.2 1.4 0 .5.1 1 .2 1.4.1.5.3.9.6 1.2.3.4.6.6 1 .9.4.2.9.3 1.5.3.4 0 .8-.1 1.1-.2s.6-.3.8-.6c.2-.2.4-.5.6-.9.1-.3.2-.7.3-1.1v-.2h1.4v.3c-.1.6-.2 1.2-.4 1.6-.2.5-.5.9-.9 1.3s-.8.6-1.3.8c-.4.1-.9.2-1.5.2zm0-9.8c-.7 0-1.3.1-1.8.4s-1 .6-1.3 1-.6.9-.8 1.5-.3 1.2-.3 1.8c0 .6.1 1.2.3 1.8.2.6.4 1.1.8 1.5.3.4.8.8 1.3 1s1.1.4 1.8.4c.5 0 1-.1 1.4-.2.4-.2.8-.4 1.1-.7.3-.3.6-.7.8-1.1s.3-.8.4-1.2h-.4c-.1.4-.2.7-.3 1-.2.4-.4.7-.7 1s-.6.5-1 .7-.8.3-1.3.3c-.7 0-1.2-.1-1.7-.4s-.9-.6-1.2-1-.5-.9-.7-1.4c-.1-.5-.2-1-.2-1.6 0-.5.1-1.1.2-1.6s.4-1 .7-1.4.7-.8 1.2-1c.5-.3 1.1-.4 1.7-.4.4 0 .7.1 1.1.2.3.1.6.3.9.5.3.2.5.5.7.8s.3.5.4.9h.4c-.1-.3-.2-.7-.4-.9-.2-.3-.5-.6-.8-.9-.3-.2-.7-.4-1.1-.5-.4-.4-.8-.5-1.2-.5zm18 0h.9v4.1h5.6v-4.1h.9V82h-.9v-4.6h-5.6V82h-.9v-9.4z"/><path class="st0" d="M185.9 82.2h-1.4v-4.6h-5.1v4.6H178v-9.9h1.4v4.1h5.1v-4.1h1.4v9.9zm-.9-.5h.4v-8.9h-.4v4.1h-6.1v-4.1h-.4v8.9h.4v-4.6h6.1v4.6zm39.7.3h-.6l-.1-1.7-.6.9c-.2.2-.5.4-.8.6s-.6.3-.9.3c-.3.1-.7.1-1 .1-.7 0-1.4-.1-1.9-.4-.6-.3-1-.6-1.4-1.1s-.6-1-.8-1.6-.3-1.2-.3-1.8c0-.6.1-1.3.3-1.8.2-.6.5-1.1.8-1.6.4-.5.8-.8 1.4-1.1.6-.3 1.2-.4 1.9-.4.5 0 1 .1 1.4.2s.8.3 1.2.6c.3.3.6.6.9 1 .2.4.4.8.5 1.3h-.9c0-.3-.1-.5-.3-.8s-.4-.5-.6-.8l-.9-.6c-.4-.1-.8-.2-1.2-.2-.6 0-1.2.1-1.6.4-.4.2-.8.6-1.1.9-.3.4-.5.8-.6 1.3s-.2 1-.2 1.5.1 1 .2 1.5.3.9.6 1.3.7.7 1.1.9c.4.2 1 .4 1.6.4.5 0 1-.1 1.4-.3.4-.2.8-.4 1-.7.3-.3.5-.7.6-1.1s.2-.9.2-1.4h-3.2V77h4l-.1 5z"/><path class="st0" d="M220.7 82.4c-.8 0-1.5-.1-2-.4-.6-.3-1.1-.7-1.5-1.1-.4-.5-.7-1-.9-1.6s-.3-1.3-.3-1.9c0-.7.1-1.3.3-1.9s.5-1.2.9-1.7.9-.9 1.5-1.1c.6-.3 1.3-.4 2-.4.5 0 1 .1 1.5.2s.9.4 1.3.6c.4.3.7.6.9 1.1.2.4.4.9.5 1.4l.1.3h-1.4v-.2c0-.2-.1-.5-.2-.7-.1-.3-.3-.5-.6-.7-.2-.2-.5-.4-.9-.5-.3-.1-.7-.2-1.1-.2-.6 0-1.1.1-1.5.3-.4.2-.8.5-1 .9-.3.4-.5.8-.6 1.2-.1.5-.2 1-.2 1.4 0 .5.1 1 .2 1.4.1.5.3.9.6 1.2.3.4.6.6 1 .9.4.2.9.3 1.5.3.5 0 .9-.1 1.3-.2.4-.2.7-.4.9-.7.3-.3.5-.6.6-1 .1-.3.2-.7.2-1.1h-3.2V77h4.5v5.3H224l-.1-1.2c-.1.1-.2.2-.2.3-.2.3-.5.5-.8.6-.3.2-.6.3-1 .4h-1.2zm0-9.8c-.7 0-1.3.1-1.8.4s-1 .6-1.3 1-.6.9-.8 1.5-.3 1.2-.3 1.8c0 .6.1 1.2.3 1.8.2.6.4 1.1.8 1.5.3.4.8.8 1.3 1s1.1.4 1.8.4c.3 0 .6 0 .9-.1.3-.1.6-.2.8-.3.3-.1.5-.3.7-.5s.4-.5.5-.8l.1-.1h.4v.2l.1 1.5h.2v-4.3H221v.3h3.2v.2c0 .5-.1 1-.2 1.5-.2.5-.4.9-.7 1.2-.3.3-.7.6-1.1.8-.4.2-.9.3-1.5.3-.7 0-1.2-.1-1.7-.4s-.9-.6-1.2-1-.5-.9-.7-1.4c-.1-.5-.2-1-.2-1.6 0-.5.1-1.1.2-1.6s.4-1 .7-1.4.7-.8 1.2-1c.5-.3 1.1-.4 1.7-.4.5 0 .9.1 1.3.2.4.2.7.4 1 .6s.5.5.7.8c.1.2.2.5.3.7h.4c-.1-.4-.2-.7-.4-1-.2-.4-.5-.7-.8-.9-.3-.2-.7-.4-1.1-.6-.5-.2-1-.3-1.4-.3zm18.5 0h4.3c.4 0 .8 0 1.1.1s.6.2.9.4c.3.2.5.5.6.8.2.3.2.7.2 1.1 0 .6-.2 1.1-.5 1.6-.3.4-.8.7-1.4.8.3 0 .6.1.8.2s.4.3.5.5l.3.6c.1.2.1.5.1.8v.6c0 .2 0 .5.1.7 0 .2.1.5.1.7.1.2.1.4.2.5h-1c-.1-.1-.1-.2-.1-.3 0-.1-.1-.3-.1-.4v-.7c0-.3 0-.7-.1-1 0-.3-.1-.6-.3-.9-.1-.3-.3-.5-.6-.6-.2-.2-.6-.2-1-.2h-3.4V82h-.9v-9.4h.2zm.9 4.4h3.3c.3 0 .5 0 .8-.1.2-.1.5-.2.6-.4.2-.2.3-.3.4-.6.1-.2.2-.5.2-.8 0-.6-.2-1-.5-1.4-.3-.3-.8-.5-1.5-.5h-3.3V77z"/><path class="st0" d="M247.2 82.2h-1.7l-.1-.1c-.1-.1-.1-.2-.2-.4 0-.1-.1-.3-.1-.4v-.7c0-.3 0-.7-.1-1 0-.3-.1-.6-.2-.8-.1-.2-.3-.4-.5-.5s-.5-.2-.8-.2h-3.2v4.2H239v-9.9h4.6c.4 0 .8.1 1.2.2s.7.3 1 .5.5.5.7.9c.2.3.3.8.3 1.2 0 .6-.2 1.2-.5 1.7-.2.3-.5.5-.8.7 0 0 .1 0 .1.1.2.1.4.3.6.5.1.2.2.5.3.7.1.3.1.5.1.8v.6c0 .2 0 .4.1.7 0 .2.1.4.1.6s.1.3.2.4l.2.2zm-1.4-.5h.4c0-.1 0-.1-.1-.2-.1-.2-.1-.5-.1-.7s0-.5-.1-.7v-.6c0-.3-.1-.5-.1-.7-.1-.2-.1-.4-.2-.6-.1-.2-.2-.3-.4-.4s-.4-.2-.7-.2h-.1c.1 0 .2.1.2.1.3.2.5.4.6.7.1.3.2.6.3 1 0 .3.1.7.1 1v.7c0 .1 0 .2.1.4.1.1.1.2.1.2zm-6.3 0h.4v-4.2h3.6c.3 0 .6 0 .8.1v-.4l.2-.1c.5-.1.9-.4 1.2-.7.3-.4.4-.9.4-1.4 0-.4-.1-.7-.2-1-.1-.3-.3-.5-.5-.7s-.5-.3-.8-.4-.7-.1-1-.1h-4.1v8.9zm3.9-4.4h-3.6v-4.2h3.6c.7 0 1.3.2 1.7.6s.6.9.6 1.5c0 .3-.1.6-.2.9-.1.3-.3.5-.5.7s-.5.3-.7.4c-.3 0-.6.1-.9.1zm-3-.5h3.1c.2 0 .5 0 .7-.1l.6-.3c.2-.1.3-.3.4-.5.1-.2.1-.4.1-.7 0-.5-.1-.9-.4-1.2-.3-.3-.7-.4-1.3-.4h-3.1v3.2h-.1zm19.8.5c0-.6.1-1.3.3-1.8.2-.6.5-1.1.8-1.6.4-.5.8-.8 1.4-1.1.6-.3 1.2-.4 1.9-.4s1.4.1 1.9.4c.6.3 1 .6 1.4 1.1s.6 1 .8 1.6c.2.6.3 1.2.3 1.8 0 .6-.1 1.3-.3 1.8-.2.6-.5 1.1-.8 1.6-.4.5-.8.8-1.4 1.1-.6.3-1.2.4-1.9.4s-1.4-.1-1.9-.4c-.6-.3-1-.6-1.4-1.1s-.6-1-.8-1.6c-.2-.6-.3-1.2-.3-1.8zm.9 0c0 .5.1 1 .2 1.5s.3.9.6 1.3.7.7 1.1.9c.4.2 1 .4 1.6.4s1.1-.1 1.6-.4c.4-.2.8-.6 1.1-.9.3-.4.5-.8.6-1.3s.2-1 .2-1.5-.1-1-.2-1.5-.3-.9-.6-1.3-.7-.7-1.1-.9c-.4-.2-1-.4-1.6-.4s-1.2.1-1.6.4c-.4.2-.8.6-1.1.9-.3.4-.5.8-.6 1.3s-.2 1-.2 1.5z"/><path class="st0" d="M264.7 82.4c-.8 0-1.5-.1-2-.4-.6-.3-1.1-.7-1.5-1.1-.4-.5-.7-1-.9-1.6-.2-.6-.3-1.3-.3-1.9 0-.7.1-1.3.3-1.9.2-.6.5-1.2.9-1.7s.9-.9 1.5-1.1c.6-.3 1.3-.4 2-.4.8 0 1.5.1 2 .4.6.3 1.1.7 1.5 1.1.4.5.7 1 .9 1.7.2.6.3 1.3.3 1.9 0 .7-.1 1.3-.3 1.9-.2.6-.5 1.2-.9 1.6-.4.5-.9.9-1.5 1.1-.6.3-1.2.4-2 .4zm0-9.8c-.7 0-1.3.1-1.8.4s-1 .6-1.3 1-.6.9-.8 1.5c-.2.6-.3 1.2-.3 1.8 0 .6.1 1.2.3 1.8.2.6.4 1.1.8 1.5.3.4.8.8 1.3 1s1.1.4 1.8.4 1.3-.1 1.8-.4 1-.6 1.3-1 .6-.9.8-1.5c.2-.6.3-1.2.3-1.8 0-.6-.1-1.2-.3-1.8-.2-.6-.4-1.1-.8-1.5-.3-.4-.8-.8-1.3-1s-1.1-.4-1.8-.4zm0 9.1c-.7 0-1.2-.1-1.7-.4s-.9-.6-1.2-1c-.3-.4-.5-.9-.7-1.4-.1-.5-.2-1-.2-1.6 0-.5.1-1.1.2-1.6s.4-1 .7-1.4c.3-.4.7-.8 1.2-1 .5-.3 1.1-.4 1.7-.4.7 0 1.2.1 1.7.4s.9.6 1.2 1c.3.4.5.9.7 1.4.1.5.2 1 .2 1.6 0 .5-.1 1.1-.2 1.6s-.4 1-.7 1.4c-.3.4-.7.8-1.2 1-.5.2-1.1.4-1.7.4zm0-8.3c-.6 0-1.1.1-1.5.3-.4.2-.8.5-1 .9-.3.4-.5.8-.6 1.2-.1.5-.2 1-.2 1.4 0 .5.1 1 .2 1.4.1.5.3.9.6 1.2.3.4.6.6 1 .9.4.2.9.3 1.5.3s1.1-.1 1.5-.3c.4-.2.8-.5 1-.9.3-.4.5-.8.6-1.2.1-.5.2-1 .2-1.4 0-.5-.1-1-.2-1.4-.1-.5-.3-.9-.6-1.2-.3-.4-.6-.6-1-.9-.5-.2-1-.3-1.5-.3zm18.5-.8h.9v5.8c0 .5.1 1 .2 1.4s.3.7.5.9c.2.2.5.4.9.5.3.1.7.2 1.2.2.4 0 .8-.1 1.2-.2.3-.1.6-.3.9-.5.2-.2.4-.6.5-.9.1-.4.2-.8.2-1.4v-5.8h.9v6c0 .5-.1.9-.2 1.4-.1.4-.4.8-.6 1.1-.3.3-.7.6-1.1.8-.5.2-1 .3-1.7.3-.6 0-1.2-.1-1.7-.3-.5-.2-.8-.5-1.1-.8-.3-.3-.5-.7-.6-1.1s-.2-.9-.2-1.4v-6h-.2z"/><path class="st0" d="M286.8 82.4c-.7 0-1.3-.1-1.8-.3-.5-.2-.9-.5-1.2-.8-.3-.3-.6-.8-.7-1.2-.1-.5-.2-.9-.2-1.4v-6.3h1.4v6.1c0 .5.1 1 .2 1.3s.3.6.5.8c.2.2.5.4.8.5.6.2 1.5.2 2.2 0 .3-.1.6-.3.8-.5.2-.2.4-.5.5-.8.1-.4.2-.8.2-1.3v-6.1h1.4v6.3c0 .5-.1 1-.2 1.4-.1.5-.4.9-.7 1.2-.3.4-.7.6-1.2.8-.7.2-1.3.3-2 .3zm-3.4-9.6v5.8c0 .5.1.9.2 1.3s.3.7.6 1c.3.3.6.5 1 .7s1 .3 1.6.3 1.2-.1 1.6-.3c.4-.2.8-.4 1-.7.3-.3.5-.6.6-1s.2-.8.2-1.3v-5.8h-.4v5.6c0 .6-.1 1.1-.2 1.5s-.3.8-.6 1-.6.5-1 .6c-.7.2-1.8.2-2.5 0-.4-.1-.7-.3-1-.6-.3-.3-.5-.6-.6-1s-.2-.9-.2-1.5v-5.6h-.3zm21.6-.2h4.2c.4 0 .8.1 1.1.2.3.1.6.3.9.5.2.2.4.5.6.8.1.3.2.7.2 1.1s-.1.8-.2 1.1c-.1.3-.3.6-.6.8-.2.2-.5.4-.9.5-.3.1-.7.2-1.1.2h-3.3v4h-.9v-9.2zm.9 4.6h3.1c.6 0 1.1-.2 1.5-.5s.6-.8.6-1.4-.2-1.1-.6-1.4-.9-.5-1.5-.5h-3.1v3.8z"/><path class="st0" d="M306.2 82.2h-1.4v-9.9h4.4c.4 0 .9.1 1.2.2.4.1.7.3 1 .6.3.3.5.6.6.9.1.4.2.8.2 1.2 0 .5-.1.9-.2 1.2-.1.4-.4.7-.6.9-.3.3-.6.5-1 .6s-.8.2-1.2.2h-3v4.1zm-.9-.5h.4v-4h3.5c.4 0 .7-.1 1.1-.2.3-.1.6-.3.8-.5.2-.2.4-.5.5-.8s.2-.7.2-1c0-.4-.1-.7-.2-1s-.3-.6-.5-.8c-.2-.2-.5-.4-.8-.5s-.7-.2-1.1-.2h-3.9v9zm3.7-4.3h-3.3v-4.3h3.3c.7 0 1.2.2 1.7.5.4.4.7.9.7 1.6s-.2 1.3-.7 1.6c-.4.5-1 .6-1.7.6zm-2.8-.5h2.8c.6 0 1-.1 1.4-.4.3-.3.5-.7.5-1.3s-.2-1-.5-1.3-.8-.4-1.4-.4h-2.8v3.4zM157.6 49c.7-1.7 1.7-3.1 2.9-4.2s2.6-1.7 4.2-1.7c1.7 0 3.7.7 6.1 2.2 2.4 1.5 4.1 2.2 5.4 2.2 1.2 0 2.2-.3 3-1 .8-.6 1.6-1.6 2.4-3l1.7 1.1c-.6 1.3-1.6 2.5-2.9 3.8-1.3 1.3-2.9 1.9-4.8 1.9-1.8 0-3.9-.7-6.2-2.2s-4.1-2.2-5.4-2.2c-1 0-1.9.3-2.7 1s-1.5 1.6-2.1 2.9l-1.6-.8z"/></svg>