<svg xmlns="http://www.w3.org/2000/svg" xmlns:xlink="http://www.w3.org/1999/xlink" viewBox="0 0 285.6 279.8"><path d="M35.9 254.4c1 0 1.7.7 1.7 1.6 0 .9-.7 1.6-1.7 1.6h-9c-1 0-1.7-.7-1.7-1.7v-17.2c0-1 .8-1.8 1.8-1.8s1.8.8 1.8 1.8v15.6h7.1zm1.6-6.9c0-7.2 3.5-10.6 9.6-10.6s9.6 3.5 9.6 10.6-3.5 10.6-9.6 10.6-9.6-3.5-9.6-10.6zm3.6 0c0 5 2 7.5 6 7.5s6-2.5 6-7.5-2-7.5-6-7.5-6 2.5-6 7.5zm33.9-8.7v17.4c0 .9-.8 1.7-1.7 1.7-.6 0-1.1-.3-1.4-.8L63 244.2v11.9c0 .9-.8 1.7-1.7 1.7-.9 0-1.7-.8-1.7-1.7v-17.4c0-.9.8-1.7 1.7-1.7.6 0 1.1.3 1.4.7l9 13v-12c0-.9.8-1.7 1.7-1.7.8 0 1.6.8 1.6 1.8zm9.3-1.5c6 0 9.8 2.7 9.8 10.2 0 7.5-3.8 10.2-9.8 10.2h-4.1c-1 0-1.8-.8-1.8-1.8V239c0-1 .8-1.8 1.8-1.8h4.1zM82 254.5h2.3c3.9 0 6.2-1.8 6.2-7 0-5.3-2.3-7.1-6.2-7.1H82v14.1zm14.2-7c0-7.2 3.5-10.6 9.6-10.6s9.6 3.5 9.6 10.6-3.5 10.6-9.6 10.6c-6.2 0-9.6-3.5-9.6-10.6zm3.6 0c0 5 2 7.5 6 7.5s6-2.5 6-7.5-2-7.5-6-7.5-6 2.5-6 7.5zm33.8-8.7v17.4c0 .9-.8 1.7-1.7 1.7-.6 0-1.1-.3-1.4-.8l-8.9-12.9v11.9c0 .9-.8 1.7-1.7 1.7-.9 0-1.7-.8-1.7-1.7v-17.4c0-.9.8-1.7 1.7-1.7.6 0 1.1.3 1.4.7l9 13v-12c0-.9.8-1.7 1.7-1.7s1.6.8 1.6 1.8zm9.6 8.7c0-7.2 3.5-10.6 9.6-10.6s9.6 3.5 9.6 10.6-3.5 10.6-9.6 10.6c-6.2 0-9.6-3.5-9.6-10.6zm3.6 0c0 5 2 7.5 6 7.5s6-2.5 6-7.5-2-7.5-6-7.5-6 2.5-6 7.5zm33.8-8.7v17.4c0 .9-.8 1.7-1.7 1.7-.6 0-1.1-.3-1.4-.8l-8.9-12.9v11.9c0 .9-.8 1.7-1.7 1.7s-1.7-.8-1.7-1.7v-17.4c0-.9.8-1.7 1.7-1.7.6 0 1.1.3 1.4.7l9 13v-12c0-.9.8-1.7 1.7-1.7.8 0 1.6.8 1.6 1.8zm12 1.6v15.8c0 1-.8 1.8-1.8 1.8s-1.8-.8-1.8-1.8v-15.8h-4.6c-.8 0-1.5-.7-1.5-1.5s.7-1.5 1.5-1.5h12.8c.8 0 1.5.7 1.5 1.5s-.7 1.5-1.5 1.5h-4.6zm9.6 12l-1.8 4.4c-.3.6-.8 1.2-1.6 1.2-.9 0-1.7-.8-1.7-1.7 0-.2 0-.4.1-.6l7.2-17.4c.2-.4.7-1.1 1.6-1.1s1.4.7 1.6 1.1l7.1 17.4c.1.2.1.5.1.6 0 .9-.8 1.7-1.7 1.7-.8 0-1.4-.5-1.6-1.2l-1.8-4.4h-7.5zm3.6-9.6l-2.5 6.4h5l-2.5-6.4zm14.8 7.1v6.3c0 1-.8 1.8-1.8 1.8s-1.8-.8-1.8-1.8V239c0-1 .8-1.8 1.8-1.8h5.8c4.1 0 6.4 2.9 6.4 6.3 0 2.9-1.8 5.7-4.7 6l4.5 5.5c.3.4.4.7.4 1.1 0 1-.8 1.8-1.8 1.8-.5 0-1.1-.2-1.4-.6l-5.5-7.4h-1.9zm0-9.5v6.3h4.1c1.9 0 2.7-1.5 2.7-3.2 0-1.6-.8-3.2-2.8-3.2h-4zm17 15.8c0 1-.8 1.8-1.8 1.8s-1.8-.8-1.8-1.8v-17.4c0-1 .8-1.8 1.8-1.8s1.8.8 1.8 1.8v17.4zm2.8-8.7c0-7.2 3.5-10.6 9.6-10.6s9.6 3.5 9.6 10.6-3.5 10.6-9.6 10.6-9.6-3.5-9.6-10.6zm3.7 0c0 5 2 7.5 6 7.5s6-2.5 6-7.5-2-7.5-6-7.5-6 2.5-6 7.5z"/><defs><path id="a" d="M259.1 214.8H26.2c-4.9 0-4.9 7.6 0 7.6h232.9c4.9 0 4.9-7.6 0-7.6"/></defs><use xlink:href="#a" overflow="visible" fill-rule="evenodd" clip-rule="evenodd"/><clipPath id="b"><use xlink:href="#a" overflow="visible"/></clipPath><g clip-path="url(#b)"><defs><path id="c" d="M-32.5-39.6h1041V634h-1041z"/></defs><use xlink:href="#c" overflow="visible"/><clipPath id="d"><use xlink:href="#c" overflow="visible"/></clipPath><g clip-path="url(#d)"><path d="M21.5 213.8h242.2v9.6H21.5z"/></g></g><defs><path id="e" d="M259.8 79.8c-2.3-3-7-6.1-9.9-9.7.9-2.5 1.5-5.1 1.8-7.8.8-6.7-6.3-7.3-9.5-2.7-2.6 3.7-1.7 7.5.4 11-.6 1.2-1.3 2.4-2 3.5-2.8 4.6-6.9 8.6-11.4 11.6-3.1 2.1-7.3 4.2-11.2 3 .6-.4 1.1-.9 1.6-1.3 5.5-4.3 13-11.1 13.4-18.7.3-6.5-5.8-11.4-11.9-8.4-6.8 3.3-11.1 11.7-12.4 18.9-.4 2.5-.3 5.2.4 7.7-5.1 3.1-13.8 7.2-14.9-1.5-.4-2.8-.1-5.8.4-8.7.8-2.3 1.4-4.6 1.8-6.9.7-2.1-.7-3.6-2.4-3.9-1.6-.5-3.5 0-3.9 2.2-1.3 6.5-3.4 12.8-7 16.6-4.6 4.9-8.3 3.8-10.8-.2 2.1-4.5 3.7-9.3 5.4-13.9 2.7-7.4 5.3-15.1 6.1-23 .5-5.2-.9-11.2-7.1-11.5-5.7-.3-8.9 6.2-10.6 10.6-1.8 4.6-2.8 9.7-3.2 14.8-1.8-.3-3.7-.1-5.6.6-6.2 2.3-10.1 10.1-11.6 15-1.4 4.4-5.5 12.6-10.9 13.3-2 .2-2.3-4-2.4-5.3-.5-4.2-.1-9.3.5-13.2.6-3.9-5-5.7-6.2-2.3-.4-.3-.8-.7-1.2-1-3.3-2.2-7.2-.9-10.8 1.1-2.9 1.6-7.7 7.1-10.1 10.2-6.9 8.6-18.7 19.7-43.4 7.9 2.6-5.7 3.2-12.6 3.6-18.7.7-10.6-.1-22.3 5-31.9 3.1-5.8 9.6-10.1 16.4-9.1 6.2.9 8.6 5.9 5.9 11.4-1.8 3.8 3.8 7.1 5.6 3.3 7-14.2-6.6-24.6-20.2-20.3C57.4 29 59.4 55.1 58.1 71.7c-.3 4.6-1.1 9-2.8 12.6-3.8-2.6-7.4-5.3-11.9-6.5-6.2-1.6-15.6.3-19.2 6-4 6.3 0 13.2 6.3 15.9 8.5 3.6 19.7.8 26.3-5.4.3-.3.6-.7 1-1 4.4 2.3 9.1 4 14.3 4.8 10.7 1.7 22.2.3 30.5-6 2.2 7.5 12.2 9.2 19.2 3.1 1.9-1.7 3.6-3.7 5-5.8.3.9.6 1.7 1 2.6 1.6 3.4 5 5.7 8.9 4.7 3.7-.9 6.6-3.3 9-6.2.9 4.5 3.5 8.2 9.3 8.1 5.2 0 10.4-3.5 13.9-7.8.3.4.7.8 1.1 1.1 5.9 5.5 14.2 2.2 18.7-3.3 1.3 4.8 4.5 8.4 10.9 8.7 4.4.2 9-2 13.1-4.6 1.6 1.5 3.6 2.6 6.2 2.8 8.9.9 17.4-6 23-12.2 2-2.2 3.8-4.7 5.3-7.3.8.8 1.6 1.6 2.3 2.2 3.3 3.2 8.7 6.9 6 12-2.6 4.9-9.3 2.6-12.6.2-3.4-2.5-6.7 3.2-3.3 5.6 7.1 5.1 18.9 5 22.4-4.4 1.5-4.1.7-8.3-2.2-11.8zM43.3 94.2c-4.4 1.1-9.9 1-13.2-2.4-3.2-3.2 1.2-6.1 4-7.1 6.5-2.2 11.3.6 16.5 4.2.4.3.8.5 1.1.8-2.2 2-4.9 3.6-8.4 4.5zm72-2.5c-3.5 2-6.8 1-6.7-3.1 0-3.1 1.7-6.5 3.7-8.8 1.4-1.7 7.3-6.8 10-5.5 3.9 1.8 0 9.6-1.2 11.5v.1c-1.5 2.3-3.3 4.4-5.8 5.8zm61.6-49.1c1.7-.5-1.2 13.7-1.5 14.7-1.6 5.8-3.7 11.4-5.9 16.9-.2-1.5-.2-6.3-.3-6.7.1-3.4.4-6.7.9-9.9.7-3.8 2.1-13.7 6.8-15zm-20.7 49.2c-4.2 1.3-4.7-2.7-4.7-6 0-5.4 1.4-11.7 5.3-15.7 1-1 6-4.1 6-1.3v2.4c.2 4.2.7 8.9 2.2 13.2-1.9 3.3-4.6 6-8.8 7.4zM222 67.6c1.6-1.5 4.5-2.9 4.6.4.3 5.4-6.1 11.1-11.5 14.9 0-1.9.4-3.8.7-5 1.1-3.8 3.3-7.5 6.2-10.3z"/></defs><use xlink:href="#e" overflow="visible" fill-rule="evenodd" clip-rule="evenodd"/><clipPath id="f"><use xlink:href="#e" overflow="visible"/></clipPath><g clip-path="url(#f)"><defs><path id="g" d="M-32.5-39.6h1041V634h-1041z"/></defs><use xlink:href="#g" overflow="visible"/><clipPath id="h"><use xlink:href="#g" overflow="visible"/></clipPath><g clip-path="url(#h)"><path d="M21.5 20.6h242.2v81.8H21.5z"/></g></g><defs><path id="i" d="M191.5 111.5c-2.3 0-4.2 1.9-4.2 4.2v54.5c0 9.8-3.6 19.1-20.5 19.1-17 0-20.6-9.4-20.6-19.1v-54.5c0-2.3-1.9-4.2-4.2-4.2-2.3 0-4.2 1.9-4.2 4.2v54.5c0 13.6 5.7 27 29 27s28.9-13.5 28.9-27v-54.5c0-2.4-1.9-4.2-4.2-4.2"/></defs><use xlink:href="#i" overflow="visible" fill-rule="evenodd" clip-rule="evenodd"/><clipPath id="j"><use xlink:href="#i" overflow="visible"/></clipPath><g clip-path="url(#j)"><defs><path id="k" d="M-32.5-39.6h1041V634h-1041z"/></defs><use xlink:href="#k" overflow="visible"/><clipPath id="l"><use xlink:href="#k" overflow="visible"/></clipPath><g clip-path="url(#l)"><path d="M136.8 110.5h59.9v87.8h-59.9z"/></g></g><defs><path id="m" d="M237.7 152.9l23.2-35.1c.4-.5.6-1.5.6-2.2 0-2.3-1.9-4.2-4.2-4.2-1.7 0-2.8.9-3.7 2.1L233 145.2l-20.6-31.6c-.9-1.2-2-2.1-3.7-2.1-2.3 0-4.2 1.9-4.2 4.2 0 .7.2 1.7.6 2.2l23.2 35.1-24.7 37.1c-.4.6-.6 1.4-.6 2.2 0 2.3 1.9 4.2 4.2 4.2 1.4 0 2.7-.6 3.3-1.6l22.5-34.4 22.5 34.4c.6 1 2 1.6 3.3 1.6 2.3 0 4.2-1.9 4.2-4.2 0-.9-.2-1.6-.6-2.2l-24.7-37.2"/></defs><use xlink:href="#m" overflow="visible" fill-rule="evenodd" clip-rule="evenodd"/><clipPath id="n"><use xlink:href="#m" overflow="visible"/></clipPath><g clip-path="url(#n)"><defs><path id="o" d="M-32.5-39.6h1041V634h-1041z"/></defs><use xlink:href="#o" overflow="visible"/><clipPath id="p"><use xlink:href="#o" overflow="visible"/></clipPath><g clip-path="url(#p)"><path d="M202 110.5h62v87.1h-62z"/></g></g><defs><path id="q" d="M120.8 152.9c-.1 3.7-1.9 7.4-4.4 10-1.4 1.5-3.9 2.7-5.9 1.9 2.6-4.7 4.2-10.2 5.2-15.3.1-.4.2-.9.2-1.3 2.7-.6 5.3-1 7.9-1.2 3-.2 3-4.9 0-4.6-2.5.2-5 .5-7.5 1-.1-4.6-1.4-9.3-6.9-7.9-4.4 1.1-5.4 6.9-5.8 10.7 0 .3-.1.7-.1 1-3.3 1.3-6.4 2.8-9.2 4.5-2.6 1.5-.2 5.6 2.3 4 2-1.2 4.3-2.4 6.6-3.4 0 4.2.4 8.4 1.8 12.3 0 .1 0 .1.1.2-.1.1-.1.2-.2.3-2.2 3.4-6.9 7.1-8.5 1.4-.4-1.3-.5-2.7-.5-4 .1-.9.1-1.8.1-2.7 0-2.6-3.3-2.9-4.3-1-.3-.2-.7-.3-1-.5-2.5-.9-5.3.9-7.2 2.9-1.3 1.4-3.6 4.5-4.1 5.2-1.1 1.6-2.2 3.3-3.3 4.9-.6.9-1.1 1.9-1.7 2.8-.1-2.8-.5-5.6-2.6-7.2-6.1-4.8-11.4 5.5-14.1 13.1-.3-.9-.5-1.8-.7-2.8 4.4-6.8 7.7-14.7 9.7-22.4 1-3.8.9-11.4-5.2-9.2-7.6 2.8-9.1 15.2-9.5 21.8-.2 2.7-.1 5.6.3 8.5-.2.3-.3.5-.5.8l-.2.2c-1.6 2.3-3.3 4.5-5.3 6.4-2.9 2.7-5.4 3.1-6.8-.7-.7-2.2-1.2-4.7-1.3-7.2 3-.8 6-1.4 8.9-1.6 3-.2 3-4.9 0-4.6-2.9.2-5.8.7-8.8 1.4.2-1.9.6-3.7 1.3-5.3 1.1-2.8-3.4-4-4.5-1.2-.8 2.1-1.4 5-1.7 8-3.5 1.2-6.8 2.7-9.8 4.5-2.6 1.5-.2 5.5 2.3 4 2.3-1.4 4.8-2.6 7.4-3.5.3 4.4 1.4 8.7 3.8 11.3 5.4 5.8 12.2-1.1 16.2-6.3.6 2.1 1.4 4.2 2.4 6.1.9 1.7 3.8 1.4 4.2-.6 1-4.4 3.6-12.6 5.9-15.5 1.4-1.8 2.9-2 3.3-.5.6 2.1.5 4.6.4 6.8-.2 3.6 1.9 6.8 5.1 3.7 1.9-1.9 3.2-4.9 4.5-7.2 1.9 4.1 7.8 4 11.5.6 1.2-1 2.1-2.4 2.8-3.9 3.7 5.2 10.4 1.7 13.6-2.1.3-.3.5-.7.8-1 2.5 1.6 5.9 1.4 9-.2 5.1-2.6 8.1-9.9 8.4-15.4.3-3-4.3-3-4.4 0zm-59.5-1.5c.4-.5.8-.9 1.4-1.3v.3c0 2.7-1.2 5.6-2.1 8.1-1.2 3.6-2.7 7.2-4.5 10.7.1-6.7 1.6-13.3 5.2-17.8zm22.4 21.7c-2.2-3.2 2.5-10 5.7-10.4 1.4-.2 1.1 2.5.7 4.4-.7 3.4-4.3 9-6.4 6zm26.2-32.6c1.4-2.5 1.8 3.1 1.8 3.9-1.2.3-2.4.7-3.6 1 .3-1.8.9-3.5 1.8-4.9zm-2.4 10c1.1-.4 2.3-.8 3.5-1.1-.1.6-.3 1.1-.4 1.7-.6 2.5-1.4 5-2.4 7.4-.5-2.4-.8-5.2-.7-8z"/></defs><use xlink:href="#q" overflow="visible" fill-rule="evenodd" clip-rule="evenodd"/><clipPath id="r"><use xlink:href="#q" overflow="visible"/></clipPath><g clip-path="url(#r)"><defs><path id="s" d="M-32.5-39.6h1041V634h-1041z"/></defs><use xlink:href="#s" overflow="visible"/><clipPath id="t"><use xlink:href="#s" overflow="visible"/></clipPath><g clip-path="url(#t)"><path d="M21.5 134.2H127v57.3H21.5z"/></g></g><defs><path id="u" d="M195.7 59.4c5.8 0 5.9-9 .1-9-5.8 0-5.8 9-.1 9"/></defs><use xlink:href="#u" overflow="visible" fill-rule="evenodd" clip-rule="evenodd"/><clipPath id="v"><use xlink:href="#u" overflow="visible"/></clipPath><g clip-path="url(#v)"><defs><path id="w" d="M-31.8-39.4h1038.6v672H-31.8z"/></defs><use xlink:href="#w" overflow="visible"/><clipPath id="x"><use xlink:href="#w" overflow="visible"/></clipPath><g clip-path="url(#x)"><path d="M190.4 49.4h10.7v11h-10.7z"/></g></g></svg>