<svg data-name="Layer 1" xmlns="http://www.w3.org/2000/svg" viewBox="0 0 1366 343.08"><path d="M0 343.08h1366v-92.32h-2.09c-8.46-10-9.27-13.62-1.49-26.35h-7a129.93 129.93 0 0 0-19.25-11.6v-25.92h1.09v-1.31h-1.09v-7.44h1.09v-1.3h-.3v-1.49h-1.24v-1.65h-6.79v-1.15l-4.54-4h-2.12v-2.2h-2.1v2.2h-4v-2.2H1314v2.2h-4v-2.2h-2.11v2.2h-4.06v-2.2h-2.09v2.2h-2.12l-4.55 4v1.15h-6.79v1.65H1287v1.49h-.3v1.3h1.09v7.44h-1.09v1.31h1.09v10.68c-5.61-1-11.37-1.67-17.24-2.16v-1.55h-5.41v-.59H1262v.61h-3.2v.9l-2.12-.05v-1.18h-3v1.15h-1.94v-.78H1245v.92h-1.06v-1h-3.25v1.12l-.84.05v-1.17h-4v1.46q-6.79.54-13.35 1.49v-8.82h-10v-1.12h-3.84v-2.22h-3.08v2.22h-5v-.36h-3.84v.36h-5.39v1.12h-3.08v17.09c-1.33.46-2.65.92-4 1.41v-96.11h-17.62v-8.09h-29.89v8.1h-13.1v112.54h-6.84v-126h-4v-8.56h-2.64v-9.08h-3.71v-8.69h-12.9v-1.25h-22.75v1.25h-2v8.69h-3.71v9h-2.64v8.55h-3.94v126H1054v-32.23h-17.1v-74.77h4.27v-1h-4.27v-2.29h5.4v-1h-4.3v-3.55h1v-1h-15v-6.06h1.29v-1l-8.88-1h-7.76v-1h-.78l-1.58-1.53-.91-28.69-.89 28.68-1.6 1.54h-.76v1h-2.44v-1.38c1-.33 1.67-.88 1.67-1.4 0-.7-1.23-1.08-2.73-.87s-2.72 1-2.72 1.66c0 .52.68.87 1.65.92v.91h-3.2l-8.88 1v1h1.29v6.06h-7.41V86.44h-4.8V73.81h-3.33v-4.8L967 65.37h-45.42l-4.26 3.64v4.8H914v12.63h-4.78v22.48h-7v101.35l-11.77 4.55v-27.7h-8V69.19l4.56-1v-8.86h-1v-1.6l6.32-.73-6.33-.73v-.72h-1.5v-1.28l-1.72-.23v-1.13h-2.86v.7l-.87-.12-1.32-2h-3.19v-1.22h-1.38v-.9a1.13 1.13 0 0 0 .23-.67 1.08 1.08 0 1 0-1.27 1.07v.5H870v1.66h-3.54v1.22h-4.71l-.79-26-.79 26h-2.07v-1.13h-.91v-1.44h-1.26v1.44h-3.78v1.11h-2.63v-2.22h-1.61v2.22h-2.42l-8.16 1.14v1.33h-1.48v.67l-6.3.72 6.3.73v1.6h-1v8.86l4.54 1V156H838v-2.43h-1.35v-10.18h1v-1.63h-3.79v-3.49h.42v-1.18h-.57v-.17c0-2.16-1.46-3.91-3.25-3.91s-3.24 1.75-3.24 3.91a1 1 0 0 0 0 .17h-.57v1.18h.4v3.45h-3.77v1.63h.94v10.19h-1.35v2.43h-2.52v5.57h-1.65v10.27h-7.47v-11.3h-2.16v-6.85h.42v-1.27H809v-.07a6 6 0 0 0-2.27-4.82 6.43 6.43 0 0 0-1.61-4v-2.33c-.51-1.11-1.78-1.09-2.14 0v2.4a6.43 6.43 0 0 0-1.61 4 6 6 0 0 0-2.27 4.82v.07h-.52v1.27h.42v6.85h-2.63v-4.81h-1.67v-1.17h-5.8v-1.11h-1.19v-3.64h1.19v-2.21h-1.19v-3.63h1.19v-2.22h-1.19v-3.63h1.19v-2.21h-1.19v-3.68h1.19v-2.21h-1.19v-3.64h1.19v-2.15h-1.19v-3.63h1.19v-2.22h-1.19v-3.65h1.19v-2.21h-1.19v-3.64h1.19v-2.21h-8.75v-2h1.21v-2.21h-1.21v-3.61h1.21v-2.22h-9.46v-2.22h1.17v-2.18h-1.17v-3.66h1.17v-2.22h-7.57v-2.22h1.21v-2.21h-1.21v-3.63h1.21v-2.22h-18.83V42.38h-3V39h-3.54v-4.3h-2.48v-8.35H716v-3.08h-.66v-.88H714v.88h-1.7v-3.12H711v1.9h-1.57v1.22h-1.18v3h-14.52v-1.06h-9.56v1.14h-1.56v-.76h-1.31v-7.46h-1v7.46h-2v.76h-11.8v8.35H664V39h-3.53v3.38h-3v122.61h-13.06v55.51h-6.81V6.38h-21.7V0h-35.67v6.38h-21.7v131.59h-3.8v-2.36h-4.05v68.07h-8.5v13.34h-4.64v-27.93h-11.77v-55.67h-21.65v-4.35h-15.71v4.35h-7.73V68.7h-40v80.57h-3.94v45.08H428v-88.69h1.13v-3.39H428v-.92h1.13v-5.27H428v-14.4h-2.88v4.17h-2v-7H398v7h-2v-4.17h-2.86v14.4H392v5.25h1.14v.94H392v3.41h1.14v19h-32.09v42.93h-12.33v8.57h-10v1.66h-2v-7.9h-20.83V72.7h-21l-38.11 20.29v82.75h-7.87v47.17h-5.46V84.52h-5.68v-2.11h-23.6v-2.14h-5.25v-6.73h-.87v6.73h-11.8v2.11h-7.87v2.11h-8.74v138.42h-5v-51.4h-3.92v-3.61h-4.92v-34.16h-3.61v-3.84h-3v-2.17l-8.09-4.33h-23.9l-8.1 4.33v2.17h-3v3.84h-3.61v35.61h-5.79v-5.71h-7.88v-.54H97v.54H72.39v-1.19h-.9v1.19h-7.32v5.71H48.32v-2h-2.59v-2.29h-5.07v2.29H36.4v-2H24.69v4h-1.56v41.24H1.19v36H0zM787.71 155.7h.58v.07h-.58z" fill="#fff"/></svg>