<svg version="1.1" id="Layer_1" xmlns="http://www.w3.org/2000/svg" x="0" y="0" viewBox="0 0 122 126" xml:space="preserve" enable-background="new 0 0 122 126"><style>.st1{fill:#fff}</style><defs><filter id="Adobe_OpacityMaskFilter" filterUnits="userSpaceOnUse" x="57.9" y="4" width="49.8" height="107.8"><feColorMatrix values="1 0 0 0 0 0 1 0 0 0 0 0 1 0 0 0 0 0 1 0"/></filter></defs><mask maskUnits="userSpaceOnUse" x="57.9" y="4" width="49.8" height="107.8" id="mask-2_1_"><g filter="url(#Adobe_OpacityMaskFilter)"><path id="path-1_1_" class="st1" d="M14.4 125.9h93.3V4H14.4z"/></g></mask><path id="Fill-1" d="M79.1 11.5c-1.9-5.7-8-8.8-13.7-7-5.7 1.9-8.8 8-7 13.7l28.1 86.4c1.9 5.3 7.7 8.3 13.2 6.7 5.8-1.7 9.3-7.8 7.4-13.4 0-.1-28-86.4-28-86.4" mask="url(#mask-2_1_)" fill="#dfa22f"/><defs><filter id="Adobe_OpacityMaskFilter_1_" filterUnits="userSpaceOnUse" x="14.4" y="18.2" width="49.8" height="107.8"><feColorMatrix values="1 0 0 0 0 0 1 0 0 0 0 0 1 0 0 0 0 0 1 0"/></filter></defs><mask maskUnits="userSpaceOnUse" x="14.4" y="18.2" width="49.8" height="107.8" id="mask-2_2_"><g filter="url(#Adobe_OpacityMaskFilter_1_)"><path id="path-1_2_" class="st1" d="M14.4 125.9h93.3V4H14.4z"/></g></mask><path id="Fill-3" d="M35.6 25.7c-1.9-5.7-8-8.8-13.7-7-5.7 1.9-8.8 8-7 13.7L43 118.8c1.9 5.3 7.7 8.3 13.2 6.7 5.8-1.7 9.3-7.8 7.4-13.4 0-.2-28-86.4-28-86.4" mask="url(#mask-2_2_)" fill="#3cb187"/><path id="Fill-5" d="M114.5 83.1c5.7-1.9 8.8-8 7-13.7-1.9-5.7-8-8.8-13.7-7L21.3 90.6c-5.3 1.9-8.3 7.7-6.7 13.2 1.7 5.8 7.8 9.3 13.4 7.4.2-.1 86.5-28.1 86.5-28.1" fill="#ce1e5b"/><path id="Fill-6" d="M39.3 107.5c5.6-1.8 12.9-4.2 20.7-6.7-1.8-5.6-4.2-12.9-6.7-20.7l-20.7 6.7 6.7 20.7" fill="#392538"/><path id="Fill-7" d="M82.8 93.4c7.8-2.5 15.1-4.9 20.7-6.7-1.8-5.6-4.2-12.9-6.7-20.7l-20.7 6.7 6.7 20.7" fill="#bb242a"/><path id="Fill-9" d="M100.3 39.6c5.7-1.9 8.8-8 7-13.7-1.9-5.7-8-8.8-13.7-7L7.2 47C1.8 49-1.2 54.7.4 60.2c1.7 5.8 7.8 9.3 13.4 7.4.3 0 86.5-28 86.5-28" fill="#72c5cd"/><path id="Fill-11" d="M25.2 64c5.6-1.8 12.9-4.2 20.7-6.7-2.5-7.8-4.9-15.1-6.7-20.7l-20.7 6.7L25.2 64" fill="#238c73"/><path id="Fill-12" d="M68.7 49.9c7.8-2.5 15.1-4.9 20.7-6.7-2.5-7.8-4.9-15.1-6.7-20.7L62 29.2l6.7 20.7" fill="#62803a"/></svg>