<?xml version="1.0" encoding="utf-8"?>
<!-- Generator: Adobe Illustrator 23.0.3, SVG Export Plug-In . SVG Version: 6.00 Build 0)  -->
<svg version="1.1" id="Layer_1" xmlns="http://www.w3.org/2000/svg" xmlns:xlink="http://www.w3.org/1999/xlink" x="0px" y="0px"
	 viewBox="0 0 270 270" style="enable-background:new 0 0 270 270;" xml:space="preserve">
<style type="text/css">
	.st0{fill:#E01E5A;}
	.st1{fill:#36C5F0;}
	.st2{fill:#2EB67D;}
	.st3{fill:#ECB22E;}
</style>
<g>
	<g>
		<path class="st0" d="M68.6,165.2c0,13.2-10.8,24.1-24.1,24.1s-24.1-10.8-24.1-24.1c0-13.2,10.8-24.1,24.1-24.1h24.1V165.2z"/>
		<path class="st0" d="M80.7,165.2c0-13.2,10.8-24.1,24.1-24.1s24.1,10.8,24.1,24.1v60.2c0,13.2-10.8,24.1-24.1,24.1
			s-24.1-10.8-24.1-24.1C80.7,225.4,80.7,165.2,80.7,165.2z"/>
	</g>
	<g>
		<path class="st1" d="M104.8,68.6c-13.2,0-24.1-10.8-24.1-24.1s10.8-24.1,24.1-24.1s24.1,10.8,24.1,24.1v24.1H104.8z"/>
		<path class="st1" d="M104.8,80.7c13.2,0,24.1,10.8,24.1,24.1s-10.8,24.1-24.1,24.1H44.6c-13.2,0-24.1-10.8-24.1-24.1
			s10.8-24.1,24.1-24.1C44.6,80.7,104.8,80.7,104.8,80.7z"/>
	</g>
	<g>
		<path class="st2" d="M201.4,104.8c0-13.2,10.8-24.1,24.1-24.1c13.2,0,24.1,10.8,24.1,24.1s-10.8,24.1-24.1,24.1h-24.1V104.8z"/>
		<path class="st2" d="M189.3,104.8c0,13.2-10.8,24.1-24.1,24.1c-13.2,0-24.1-10.8-24.1-24.1V44.6c0-13.2,10.8-24.1,24.1-24.1
			c13.2,0,24.1,10.8,24.1,24.1V104.8z"/>
	</g>
	<g>
		<path class="st3" d="M165.2,201.4c13.2,0,24.1,10.8,24.1,24.1c0,13.2-10.8,24.1-24.1,24.1c-13.2,0-24.1-10.8-24.1-24.1v-24.1
			H165.2z"/>
		<path class="st3" d="M165.2,189.3c-13.2,0-24.1-10.8-24.1-24.1c0-13.2,10.8-24.1,24.1-24.1h60.2c13.2,0,24.1,10.8,24.1,24.1
			c0,13.2-10.8,24.1-24.1,24.1H165.2z"/>
	</g>
</g>
</svg>
